<?xml version="1.0" encoding="UTF-8" standalone="no"?><!DOCTYPE svg PUBLIC "-//W3C//DTD SVG 1.1//EN" "http://www.w3.org/Graphics/SVG/1.1/DTD/svg11.dtd"><svg width="100%" height="100%" viewBox="0 0 185 175" version="1.1" xmlns="http://www.w3.org/2000/svg" xmlns:xlink="http://www.w3.org/1999/xlink" xml:space="preserve" xmlns:serif="http://www.serif.com/" style="fill-rule:evenodd;clip-rule:evenodd;stroke-linejoin:round;stroke-miterlimit:1.41421;"><g id="Layer-1" serif:id="Layer 1"><path d="M88.844,36.92l2,-32.082l2,32.082l-4,0Z" style="fill-rule:nonzero;"/><path d="M98.863,40.131l24.102,-21.271l-21.274,24.099l-2.828,-2.828Z" style="fill-rule:nonzero;"/><path d="M80.154,42.96l-21.272,-24.1l24.1,21.272l-2.828,2.828Z" style="fill-rule:nonzero;"/><path d="M5.755,125.545l85.166,-84l85.168,83.668l-85.168,27.582l-85.166,-27.25Z" style="fill:#8f8f8f;fill-rule:nonzero;"/><path d="M61.229,90.936l12.768,-12.594l0.04,16.621l-12.808,-4.027Zm92.138,11.956l-62.446,14.321l0,-9.668l55.868,-11.115l0.043,0.04l-8.484,-8.334l0.074,0.077l-47.501,6.75l0,-10.75l38.3,-5.043l-38.3,-37.625l-85.166,84l15.391,4.925l30.854,-30.432l22.078,7.507l-0.081,39.835l16.924,5.415l85.169,-27.582l-22.723,-22.321Z" style="fill-rule:nonzero;"/></g></svg>