<?xml version="1.0" encoding="UTF-8" standalone="no"?><!DOCTYPE svg PUBLIC "-//W3C//DTD SVG 1.1//EN" "http://www.w3.org/Graphics/SVG/1.1/DTD/svg11.dtd"><svg width="100%" height="100%" viewBox="0 0 185 165" version="1.1" xmlns="http://www.w3.org/2000/svg" xmlns:xlink="http://www.w3.org/1999/xlink" xml:space="preserve" xmlns:serif="http://www.serif.com/" style="fill-rule:evenodd;clip-rule:evenodd;stroke-linecap:round;stroke-linejoin:round;stroke-miterlimit:10;"><g id="Layer-1" serif:id="Layer 1"><path d="M88.922,26.468l2,-32.082l2,32.082l-4,0Z" style="fill-rule:nonzero;"/><path d="M98.941,29.679l24.101,-21.271l-21.273,24.099l-2.828,-2.828Z" style="fill-rule:nonzero;"/><path d="M80.231,32.507l-21.272,-24.1l24.1,21.272l-2.828,2.828Z" style="fill-rule:nonzero;"/><path d="M5.833,116.972l85.166,-84l85.168,83.668l-85.168,27.582l-85.166,-27.25Z" style="fill-rule:nonzero;"/><path d="M18.999,115.371l65.5,-65l0,84.25" style="fill:none;stroke:#fffcfa;stroke-width:3px;"/><path d="M98.749,50.371l0,82.75l64.251,-17.75" style="fill:none;stroke:#fffcfa;stroke-width:3px;"/><path d="M98.749,97.053l37.052,-8.682" style="fill:none;stroke:#fffcfa;stroke-width:3px;"/><path d="M98.749,50.371l25.501,26" style="fill:none;stroke:#fffcfa;stroke-width:3px;"/><path d="M84.499,97.053l-36.641,-10.321" style="fill:none;stroke:#fffcfa;stroke-width:3px;"/></g></svg>